<?xml version="1.0" encoding="UTF-8" standalone="no"?>
<!-- Created with Inkscape (http://www.inkscape.org/) -->

<svg
   version="1.1"
   id="svg1"
   width="286.1235"
   height="64.528008"
   viewBox="0 0 286.1235 64.528007"
   sodipodi:docname="breeze-components.svg"
   inkscape:version="1.3-dev (77bc73e, 2022-05-18)"
   xmlns:inkscape="http://www.inkscape.org/namespaces/inkscape"
   xmlns:sodipodi="http://sodipodi.sourceforge.net/DTD/sodipodi-0.dtd"
   xmlns="http://www.w3.org/2000/svg"
   xmlns:svg="http://www.w3.org/2000/svg">
  <defs
     id="defs1" />
  <sodipodi:namedview
     id="namedview1"
     pagecolor="#ffffff"
     bordercolor="#000000"
     borderopacity="0.25"
     inkscape:showpageshadow="2"
     inkscape:pageopacity="0.0"
     inkscape:pagecheckerboard="0"
     inkscape:deskcolor="#d1d1d1"
     showgrid="false"
     inkscape:zoom="3.6018252"
     inkscape:cx="-21.100413"
     inkscape:cy="33.038805"
     inkscape:window-width="1440"
     inkscape:window-height="900"
     inkscape:window-x="0"
     inkscape:window-y="0"
     inkscape:window-maximized="0"
     inkscape:current-layer="g1" />
  <g
     inkscape:groupmode="layer"
     inkscape:label="Image"
     id="g1"
     transform="translate(-16.968373,-609.11607)">
    <g
       id="g80"
       inkscape:export-filename="docs/public/cucumber-components.svg"
       inkscape:export-xdpi="96"
       inkscape:export-ydpi="96">
      <g
         id="g79"
         transform="matrix(0.90224575,0,0,0.90224575,1.6587298,62.697637)">
        <circle
           style="fill:#f5ea72;fill-opacity:1;stroke:#76b23b;stroke-width:5.69136;stroke-dasharray:none;stroke-opacity:1"
           id="circle1"
           cx="52.728024"
           cy="641.38007"
           r="32.913979" />
        <g
           id="g8"
           transform="matrix(0.75291885,0,0,0.75291885,-85.840462,51.545957)">
          <g
             id="g3"
             transform="matrix(0.73547542,0,0,0.73547542,46.37743,201.8072)">
            <path
               id="path1"
               style="fill:#76b23b;fill-opacity:1;stroke:none;stroke-width:2.84746;stroke-linejoin:round;stroke-dasharray:none;paint-order:markers fill stroke"
               d="m 175.00089,753.34413 c -3.89974,1.04493 -6.25561,4.91571 -5.46063,8.81728 a 18.277548,7.5735002 75 0 0 0.13709,0.57189 18.277548,7.5735002 75 0 0 12.04477,15.69471 18.277548,7.5735002 75 0 0 2.58561,-19.61491 18.277548,7.5735002 75 0 0 -0.052,-0.18625 c -1.11613,-4.00784 -5.22683,-6.36203 -9.25489,-5.28271 z" />
            <path
               id="path3"
               style="fill:#76b23b;fill-opacity:1;stroke:none;stroke-width:2.84746;stroke-linejoin:round;stroke-dasharray:none;paint-order:markers fill stroke"
               d="m 199.35205,753.34361 c -3.89974,-1.04493 -7.87538,1.12933 -9.13768,4.90567 a 7.5735002,18.277548 15 0 0 -0.16723,0.56382 7.5735002,18.277548 15 0 0 2.58372,19.6144 7.5735002,18.277548 15 0 0 12.04666,-15.6942 7.5735002,18.277548 15 0 0 0.0481,-0.18729 c 1.03732,-4.02895 -1.34556,-8.12309 -5.37361,-9.2024 z" />
          </g>
          <g
             id="g6"
             transform="matrix(-0.73547542,0,0,-0.73547542,321.70604,1364.9862)">
            <path
               id="path4"
               style="fill:#76b23b;fill-opacity:1;stroke:none;stroke-width:2.84746;stroke-linejoin:round;stroke-dasharray:none;paint-order:markers fill stroke"
               d="m 175.00089,753.34413 c -3.89974,1.04493 -6.25561,4.91571 -5.46063,8.81728 a 18.277548,7.5735002 75 0 0 0.13709,0.57189 18.277548,7.5735002 75 0 0 12.04477,15.69471 18.277548,7.5735002 75 0 0 2.58561,-19.61491 18.277548,7.5735002 75 0 0 -0.052,-0.18625 c -1.11613,-4.00784 -5.22683,-6.36203 -9.25489,-5.28271 z" />
            <path
               id="path6"
               style="fill:#76b23b;fill-opacity:1;stroke:none;stroke-width:2.84746;stroke-linejoin:round;stroke-dasharray:none;paint-order:markers fill stroke"
               d="m 199.35205,753.34361 c -3.89974,-1.04493 -7.87538,1.12933 -9.13768,4.90567 a 7.5735002,18.277548 15 0 0 -0.16723,0.56382 7.5735002,18.277548 15 0 0 2.58372,19.6144 7.5735002,18.277548 15 0 0 12.04666,-15.6942 7.5735002,18.277548 15 0 0 0.0481,-0.18729 c 1.03732,-4.02895 -1.34556,-8.12309 -5.37361,-9.2024 z" />
          </g>
        </g>
        <g
           id="g19"
           transform="matrix(0,0.75291885,-0.75291885,0,642.56218,502.81161)">
          <g
             id="g9"
             transform="matrix(0.73547542,0,0,0.73547542,46.37743,201.8072)">
            <path
               id="path8"
               style="fill:#76b23b;fill-opacity:1;stroke:none;stroke-width:2.84746;stroke-linejoin:round;stroke-dasharray:none;paint-order:markers fill stroke"
               d="m 175.00089,753.34413 c -3.89974,1.04493 -6.25561,4.91571 -5.46063,8.81728 a 18.277548,7.5735002 75 0 0 0.13709,0.57189 18.277548,7.5735002 75 0 0 12.04477,15.69471 18.277548,7.5735002 75 0 0 2.58561,-19.61491 18.277548,7.5735002 75 0 0 -0.052,-0.18625 c -1.11613,-4.00784 -5.22683,-6.36203 -9.25489,-5.28271 z" />
            <path
               id="path9"
               style="fill:#76b23b;fill-opacity:1;stroke:none;stroke-width:2.84746;stroke-linejoin:round;stroke-dasharray:none;paint-order:markers fill stroke"
               d="m 199.35205,753.34361 c -3.89974,-1.04493 -7.87538,1.12933 -9.13768,4.90567 a 7.5735002,18.277548 15 0 0 -0.16723,0.56382 7.5735002,18.277548 15 0 0 2.58372,19.6144 7.5735002,18.277548 15 0 0 12.04666,-15.6942 7.5735002,18.277548 15 0 0 0.0481,-0.18729 c 1.03732,-4.02895 -1.34556,-8.12309 -5.37361,-9.2024 z" />
          </g>
          <g
             id="g18"
             transform="matrix(-0.73547542,0,0,-0.73547542,321.70604,1364.9862)">
            <path
               id="path10"
               style="fill:#76b23b;fill-opacity:1;stroke:none;stroke-width:2.84746;stroke-linejoin:round;stroke-dasharray:none;paint-order:markers fill stroke"
               d="m 175.00089,753.34413 c -3.89974,1.04493 -6.25561,4.91571 -5.46063,8.81728 a 18.277548,7.5735002 75 0 0 0.13709,0.57189 18.277548,7.5735002 75 0 0 12.04477,15.69471 18.277548,7.5735002 75 0 0 2.58561,-19.61491 18.277548,7.5735002 75 0 0 -0.052,-0.18625 c -1.11613,-4.00784 -5.22683,-6.36203 -9.25489,-5.28271 z" />
            <path
               id="path17"
               style="fill:#76b23b;fill-opacity:1;stroke:none;stroke-width:2.84746;stroke-linejoin:round;stroke-dasharray:none;paint-order:markers fill stroke"
               d="m 199.35205,753.34361 c -3.89974,-1.04493 -7.87538,1.12933 -9.13768,4.90567 a 7.5735002,18.277548 15 0 0 -0.16723,0.56382 7.5735002,18.277548 15 0 0 2.58372,19.6144 7.5735002,18.277548 15 0 0 12.04666,-15.6942 7.5735002,18.277548 15 0 0 0.0481,-0.18729 c 1.03732,-4.02895 -1.34556,-8.12309 -5.37361,-9.2024 z" />
          </g>
        </g>
      </g>
      <g
         id="g39"
         transform="matrix(1.5764458,0,0,1.5764458,-200.24963,-596.02953)">
        <g
           aria-label="Cucumber"
           id="g28"
           style="font-weight:800;font-size:21.1811px;font-family:'Input Mono';-inkscape-font-specification:'Input Mono, Ultra-Bold';opacity:1;fill:#76b23b;stroke-width:2.14431;stroke-linejoin:round;paint-order:markers fill stroke"
           transform="translate(-2.221093,2.4987332)">
          <path
             d="m 194.90497,778.50817 q -2.98461,0 -4.48654,-1.23236 -1.48268,-1.25161 -1.48268,-3.71632 v -5.81517 q 0,-2.52248 1.50194,-3.77409 1.50193,-1.25161 4.48654,-1.25161 3.04238,0 4.42877,1.30938 1.3864,1.30937 1.52119,4.29398 l -3.85111,0.19256 q -0.11553,-1.79077 -0.53915,-2.34918 -0.40437,-0.55841 -1.57896,-0.55841 -1.13607,0 -1.63672,0.59692 -0.48139,0.57767 -0.48139,1.94481 v 5.0257 q 0,1.30938 0.48139,1.88705 0.50065,0.55841 1.63672,0.55841 1.15534,0 1.5597,-0.53916 0.42362,-0.55841 0.55841,-2.29141 l 3.85111,0.19256 q -0.13479,2.96535 -1.52119,4.25547 -1.38639,1.27087 -4.44803,1.27087 z"
             id="path21" />
          <path
             d="m 205.82284,778.50817 q -1.32864,0 -2.27216,-0.8665 -0.94352,-0.88576 -0.94352,-2.61876 v -8.26062 h 3.85111 v 7.20157 q 0,0.80873 0.28883,1.23235 0.30809,0.42363 0.84725,0.42363 0.59692,0 1.19384,-0.44288 0.59692,-0.46213 1.13608,-1.2131 v -7.20157 h 3.85111 v 11.55332 h -3.85111 v -2.11811 h -0.57767 q -0.5199,1.25161 -1.5597,1.79077 -1.02054,0.5199 -1.96406,0.5199 z"
             id="path22" />
          <path
             d="m 221.84342,778.50817 q -2.79206,0 -4.27473,-1.17459 -1.48268,-1.17459 -1.48268,-3.38898 v -2.88833 q 0,-2.13736 1.48268,-3.31195 1.50193,-1.17459 4.25547,-1.17459 2.65727,0 3.90888,1.15533 1.25161,1.13608 1.54044,3.19642 l -3.71632,0.30809 q -0.0963,-1.09756 -0.50064,-1.52119 -0.40437,-0.42362 -1.34789,-0.42362 -0.98204,0 -1.3864,0.46213 -0.38511,0.44288 -0.38511,1.57896 v 2.4262 q 0,1.15533 0.40436,1.61746 0.40437,0.44288 1.40566,0.44288 0.94352,0 1.32863,-0.3466 0.40437,-0.3466 0.48139,-1.23235 l 3.71632,0.30809 q -0.13479,1.90629 -1.27087,2.94609 -1.13607,1.02055 -4.15919,1.02055 z"
             id="path23" />
          <path
             d="m 232.78053,778.50817 q -1.32863,0 -2.27215,-0.8665 -0.94352,-0.88576 -0.94352,-2.61876 v -8.26062 h 3.85111 v 7.20157 q 0,0.80873 0.28883,1.23235 0.30809,0.42363 0.84724,0.42363 0.59692,0 1.19385,-0.44288 0.59692,-0.46213 1.13607,-1.2131 v -7.20157 h 3.85111 v 11.55332 h -3.85111 v -2.11811 h -0.57766 q -0.5199,1.25161 -1.5597,1.79077 -1.02055,0.5199 -1.96407,0.5199 z"
             id="path24" />
          <path
             d="m 245.72023,770.15126 v 8.16435 h -3.1194 v -11.55332 h 3.08089 v 1.54044 h 0.59692 q 0.36585,-0.80873 0.84724,-1.2131 0.50065,-0.42362 1.13608,-0.42362 0.61618,0 1.09757,0.40436 0.50064,0.40437 0.6932,1.23236 h 0.53915 q 0.32735,-0.80873 0.90501,-1.2131 0.57767,-0.42362 1.36715,-0.42362 0.82798,0 1.30937,0.71245 0.48139,0.71246 0.48139,1.9063 v 9.03085 h -3.1194 v -8.3569 q 0,-0.42363 -0.11553,-0.65469 -0.11553,-0.23107 -0.30809,-0.23107 -0.25032,0 -0.5199,0.28883 -0.25032,0.26958 -0.44288,0.78948 v 8.16435 h -3.04237 v -8.3569 q 0,-0.42363 -0.11554,-0.65469 -0.11553,-0.23107 -0.30808,-0.23107 -0.25033,0 -0.5199,0.28883 -0.25033,0.26958 -0.44288,0.78948 z"
             id="path25" />
          <path
             d="m 261.97188,778.43115 q -1.3864,0 -2.79206,-0.36586 -1.3864,-0.38511 -2.65726,-1.09757 v -14.05654 h 3.85111 v 5.96922 h 0.57766 q 0.44288,-1.11683 1.34789,-1.71375 0.90501,-0.59692 2.13737,-0.59692 1.48267,0 2.36843,1.05905 0.88576,1.0398 0.88576,2.79206 v 3.67781 q 0,2.11811 -1.46343,3.23493 -1.46342,1.09757 -4.25547,1.09757 z m 0.21181,-2.67652 q 0.80873,0 1.23235,-0.36586 0.42363,-0.38511 0.42363,-1.30938 v -2.90758 q 0,-0.88576 -0.38511,-1.29013 -0.36586,-0.42362 -0.96278,-0.42362 -0.53916,0 -1.05906,0.25032 -0.50064,0.23107 -1.05905,0.71246 v 4.8524 q 0.48139,0.25032 0.90501,0.36585 0.42362,0.11554 0.90501,0.11554 z"
             id="path26" />
          <path
             d="m 281.4392,775.58133 q -0.77023,1.67523 -2.00258,2.31066 -1.23236,0.61618 -3.77409,0.61618 -2.38769,0 -4.02441,-1.09757 -1.63672,-1.09756 -1.63672,-3.33121 v -3.06163 q 0,-2.0796 1.48268,-3.25419 1.48268,-1.19384 4.12069,-1.19384 2.61875,0 4.08217,1.19384 1.48268,1.17459 1.48268,3.2927 v 2.2529 h -7.31711 v 1.0398 q 0,0.80873 0.42362,1.29012 0.44288,0.46213 1.50194,0.46213 0.82798,0 1.42491,-0.25032 0.61617,-0.26957 1.07831,-1.09756 z m -7.58669,-4.94868 v 0.75097 h 3.466 v -0.57767 q 0,-1.07831 -0.3466,-1.50193 -0.3466,-0.42362 -1.3864,-0.42362 -1.0398,0 -1.3864,0.40436 -0.3466,0.38511 -0.3466,1.34789 z"
             id="path27" />
          <path
             d="m 283.86536,778.31561 v -11.55332 h 3.85111 v 2.11811 h 0.57767 q 0.42362,-1.2131 1.34789,-1.75226 0.92426,-0.55841 2.17587,-0.55841 1.50194,0 2.2529,0.8665 0.77023,0.84724 0.77023,2.40694 v 2.15662 h -3.466 v -1.05905 q 0,-0.67395 -0.30809,-1.07831 -0.28883,-0.40437 -1.05906,-0.40437 -0.65468,0 -1.27086,0.30809 -0.61618,0.28883 -1.02055,1.0398 v 7.50966 z"
             id="path28" />
        </g>
        <g
           aria-label="Components"
           id="g38"
           style="font-weight:800;font-size:21.1811px;font-family:'Input Mono';-inkscape-font-specification:'Input Mono, Ultra-Bold';opacity:1;fill:#76b23b;stroke-width:2.14431;stroke-linejoin:round;paint-order:markers fill stroke"
           transform="translate(0.277637,-20.822776)">
          <path
             d="m 192.40624,821.81957 q -2.98461,0 -4.48654,-1.23236 -1.48268,-1.25161 -1.48268,-3.71632 v -5.81517 q 0,-2.52248 1.50193,-3.77409 1.50194,-1.25161 4.48655,-1.25161 3.04237,0 4.42877,1.30938 1.3864,1.30938 1.52119,4.29399 l -3.85111,0.19255 q -0.11553,-1.79076 -0.53916,-2.34918 -0.40436,-0.55841 -1.57895,-0.55841 -1.13608,0 -1.63672,0.59693 -0.48139,0.57766 -0.48139,1.94481 v 5.02569 q 0,1.30938 0.48139,1.88705 0.50064,0.55841 1.63672,0.55841 1.15533,0 1.5597,-0.53916 0.42362,-0.55841 0.55841,-2.29141 l 3.85111,0.19256 q -0.13479,2.96535 -1.52119,4.25547 -1.3864,1.27087 -4.44803,1.27087 z"
             id="path29" />
          <path
             d="m 205.69253,821.81957 q -2.61875,0 -4.10143,-1.15533 -1.48267,-1.15534 -1.48267,-3.21568 v -3.1194 q 0,-2.0796 1.48267,-3.25419 1.48268,-1.19384 4.12069,-1.19384 2.61875,0 4.08218,1.2131 1.48267,1.2131 1.48267,3.33121 v 3.1194 q 0,2.00258 -1.48267,3.13865 -1.48268,1.13608 -4.10144,1.13608 z m 0,-2.69578 q 0.92427,0 1.32864,-0.44287 0.40436,-0.44288 0.40436,-1.42491 v -2.75355 q 0,-1.02054 -0.40436,-1.46342 -0.40437,-0.46213 -1.32864,-0.46213 -0.92426,0 -1.32863,0.46213 -0.40437,0.44288 -0.40437,1.42491 v 2.69578 q 0,1.0398 0.40437,1.50193 0.40437,0.46213 1.32863,0.46213 z"
             id="path30" />
          <path
             d="m 216.2638,813.46266 v 8.16435 h -3.1194 v -11.55332 h 3.08088 v 1.54044 h 0.59693 q 0.36585,-0.80873 0.84724,-1.2131 0.50064,-0.42362 1.13608,-0.42362 0.61618,0 1.09756,0.40437 0.50065,0.40436 0.6932,1.23235 h 0.53916 q 0.32734,-0.80873 0.90501,-1.2131 0.57767,-0.42362 1.36714,-0.42362 0.82799,0 1.30938,0.71245 0.48139,0.71246 0.48139,1.9063 v 9.03085 h -3.1194 v -8.3569 q 0,-0.42362 -0.11553,-0.65469 -0.11554,-0.23107 -0.30809,-0.23107 -0.25032,0 -0.5199,0.28884 -0.25032,0.26957 -0.44288,0.78947 v 8.16435 h -3.04237 v -8.3569 q 0,-0.42362 -0.11554,-0.65469 -0.11553,-0.23107 -0.30809,-0.23107 -0.25032,0 -0.5199,0.28884 -0.25032,0.26957 -0.44287,0.78947 z"
             id="path31" />
          <path
             d="m 232.72725,819.06603 q 0.80874,0 1.23236,-0.38511 0.42362,-0.38512 0.42362,-1.29013 v -2.90758 q 0,-0.88576 -0.38511,-1.29013 -0.36586,-0.42362 -0.96278,-0.42362 -0.53915,0 -1.05905,0.25032 -0.50065,0.23107 -1.05906,0.71246 v 4.83314 q 0.48139,0.25032 0.8665,0.38511 0.40437,0.11554 0.94352,0.11554 z m 0.73171,2.67652 q -0.65468,0 -1.32863,-0.11554 -0.67394,-0.11553 -1.2131,-0.32734 v 4.17845 h -3.85111 v -15.40443 h 3.85111 v 2.11811 h 0.57767 q 0.42362,-1.05906 1.34789,-1.67524 0.94352,-0.63543 2.13736,-0.63543 1.50193,0 2.36843,1.0398 0.88576,1.0398 0.88576,2.81131 v 3.67781 q 0,2.00258 -1.29012,3.17716 -1.29012,1.15534 -3.48526,1.15534 z"
             id="path32" />
          <path
             d="m 246.12908,821.81957 q -2.61875,0 -4.10143,-1.15533 -1.48268,-1.15534 -1.48268,-3.21568 v -3.1194 q 0,-2.0796 1.48268,-3.25419 1.48268,-1.19384 4.12069,-1.19384 2.61875,0 4.08217,1.2131 1.48268,1.2131 1.48268,3.33121 v 3.1194 q 0,2.00258 -1.48268,3.13865 -1.48267,1.13608 -4.10143,1.13608 z m 0,-2.69578 q 0.92427,0 1.32863,-0.44287 0.40437,-0.44288 0.40437,-1.42491 v -2.75355 q 0,-1.02054 -0.40437,-1.46342 -0.40436,-0.46213 -1.32863,-0.46213 -0.92426,0 -1.32863,0.46213 -0.40437,0.44288 -0.40437,1.42491 v 2.69578 q 0,1.0398 0.40437,1.50193 0.40437,0.46213 1.32863,0.46213 z"
             id="path33" />
          <path
             d="m 254.02382,821.62701 v -11.55332 h 3.85111 v 2.11811 h 0.57767 q 0.46213,-1.09757 1.44417,-1.69449 0.98203,-0.61618 2.27215,-0.61618 1.44417,0 2.23364,0.92427 0.78948,0.90501 0.78948,2.56098 v 8.26063 h -3.85111 v -7.58668 q 0,-0.61618 -0.30809,-0.94352 -0.28883,-0.32735 -0.82798,-0.32735 -0.59693,0 -1.23236,0.32735 -0.63543,0.30809 -1.09757,0.94352 v 7.58668 z"
             id="path34" />
          <path
             d="m 278.94046,818.89273 q -0.77022,1.67523 -2.00257,2.31066 -1.23236,0.61618 -3.77409,0.61618 -2.38769,0 -4.02441,-1.09757 -1.63672,-1.09756 -1.63672,-3.33121 v -3.06163 q 0,-2.0796 1.48268,-3.25419 1.48267,-1.19384 4.12068,-1.19384 2.61876,0 4.08218,1.19384 1.48268,1.17459 1.48268,3.2927 v 2.2529 h -7.31711 v 1.0398 q 0,0.80873 0.42362,1.29012 0.44288,0.46214 1.50193,0.46214 0.82799,0 1.42491,-0.25033 0.61618,-0.26957 1.07831,-1.09756 z m -7.58668,-4.94868 v 0.75097 h 3.466 v -0.57767 q 0,-1.07831 -0.3466,-1.50193 -0.3466,-0.42362 -1.3864,-0.42362 -1.0398,0 -1.3864,0.40436 -0.3466,0.38511 -0.3466,1.34789 z"
             id="path35" />
          <path
             d="m 280.98152,821.62701 v -11.55332 h 3.85111 v 2.11811 h 0.57767 q 0.46213,-1.09757 1.44416,-1.69449 0.98203,-0.61618 2.27216,-0.61618 1.44416,0 2.23364,0.92427 0.78948,0.90501 0.78948,2.56098 v 8.26063 h -3.85111 v -7.58668 q 0,-0.61618 -0.30809,-0.94352 -0.28883,-0.32735 -0.82799,-0.32735 -0.59692,0 -1.23235,0.32735 -0.63544,0.30809 -1.09757,0.94352 v 7.58668 z"
             id="path36" />
          <path
             d="m 302.16259,821.83883 q -2.40694,0 -3.71632,-1.09757 -1.29012,-1.09757 -1.29012,-3.1194 v -4.8524 h -2.69578 v -2.69577 h 2.69578 v -3.85111 h 3.85111 v 3.85111 h 4.23622 v 2.69577 h -4.23622 v 4.31325 q 0,1.09756 0.46213,1.57895 0.48139,0.46213 1.29012,0.46213 0.44288,0 1.0398,-0.0578 0.59692,-0.077 1.23236,-0.32735 l 0.38511,2.61876 q -0.38511,0.1733 -1.27087,0.32734 -0.88575,0.15405 -1.98332,0.15405 z"
             id="path37" />
          <path
             d="m 313.54259,821.74255 q -1.50194,0 -3.02312,-0.38511 -1.50194,-0.40437 -2.58025,-1.09757 l 0.8665,-2.29141 q 1.15533,0.71246 2.46471,1.07831 1.32863,0.3466 2.36843,0.3466 0.84725,0 1.19385,-0.25032 0.3466,-0.26958 0.3466,-0.78948 0,-0.59692 -0.40437,-0.8665 -0.40437,-0.28883 -1.34789,-0.38511 -2.46471,-0.25032 -3.79334,-0.96278 -1.30938,-0.71245 -1.30938,-2.40694 0,-1.77151 1.34789,-2.81131 1.36715,-1.0398 3.71632,-1.0398 1.17459,0 2.48397,0.3466 1.32863,0.32735 2.36843,0.92427 l -0.67394,2.15662 q -1.09757,-0.55841 -2.11811,-0.80873 -1.02055,-0.26958 -1.9063,-0.26958 -0.73171,0 -1.05906,0.26958 -0.32734,0.25032 -0.32734,0.73171 0,0.61617 0.57766,0.84724 0.59693,0.23107 1.82928,0.38511 2.29141,0.28883 3.36972,1.09757 1.07831,0.78947 1.07831,2.34917 0,1.77151 -1.40565,2.81131 -1.40566,1.02055 -4.06292,1.02055 z"
             id="path38" />
        </g>
      </g>
    </g>
  </g>
</svg>
