<?xml version="1.0" encoding="UTF-8" standalone="no"?>
<!-- Created with Inkscape (http://www.inkscape.org/) -->

<svg
   version="1.1"
   id="svg1"
   width="113.43521"
   height="110.87668"
   viewBox="0 0 113.43521 110.87668"
   sodipodi:docname="breeze-components.svg"
   inkscape:version="1.3-dev (77bc73e, 2022-05-18)"
   xmlns:inkscape="http://www.inkscape.org/namespaces/inkscape"
   xmlns:sodipodi="http://sodipodi.sourceforge.net/DTD/sodipodi-0.dtd"
   xmlns:xlink="http://www.w3.org/1999/xlink"
   xmlns="http://www.w3.org/2000/svg"
   xmlns:svg="http://www.w3.org/2000/svg">
  <defs
     id="defs1">
    <linearGradient
       inkscape:collect="always"
       id="linearGradient2">
      <stop
         style="stop-color:#e65c1c;stop-opacity:1;"
         offset="0"
         id="stop1" />
      <stop
         style="stop-color:#f47c0a;stop-opacity:0;"
         offset="1"
         id="stop2" />
    </linearGradient>
    <linearGradient
       inkscape:collect="always"
       xlink:href="#linearGradient2"
       id="linearGradient3"
       x1="-2.2806323"
       y1="-204.93451"
       x2="957.82233"
       y2="-625.42041"
       gradientUnits="userSpaceOnUse"
       gradientTransform="matrix(0.33265883,0,0,0.33265883,82.021214,175.39114)" />
  </defs>
  <sodipodi:namedview
     id="namedview1"
     pagecolor="#ffffff"
     bordercolor="#000000"
     borderopacity="0.25"
     inkscape:showpageshadow="2"
     inkscape:pageopacity="0.0"
     inkscape:pagecheckerboard="0"
     inkscape:deskcolor="#d1d1d1"
     showgrid="false"
     inkscape:zoom="0.47326204"
     inkscape:cx="362.37852"
     inkscape:cy="76.067795"
     inkscape:window-width="1440"
     inkscape:window-height="900"
     inkscape:window-x="0"
     inkscape:window-y="0"
     inkscape:window-maximized="0"
     inkscape:current-layer="g1" />
  <g
     inkscape:groupmode="layer"
     inkscape:label="Image"
     id="g1"
     transform="translate(-77.045105,-1.1704434)">
    <path
       style="fill:url(#linearGradient3);fill-opacity:1;stroke-width:0.221773"
       d="m 77.791184,111.59373 c -0.83667,-0.65813 -0.9795,-1.75541 -0.37857,-2.90831 1.33558,-2.56237 7.97086,-12.732938 11.40728,-17.485138 0.92614,-1.28074 1.68415,-2.44701 1.68447,-2.59172 2.3e-4,-0.1447 -0.30014,-1.04288 -0.6677,-1.99595 -3.34583,-8.6756 -3.56966,-21.24319 -0.54038,-30.34151 1.39107,-4.178 3.654,-8.04349 6.12712,-10.46615 4.05766,-3.97487 8.737376,-4.87847 13.718816,-2.64886 0.29296,0.13114 0.37686,-0.32477 0.59531,-3.23503 0.4398,-5.85933 1.63486,-10.64133 3.69262,-14.77605 2.58118,-5.18642 5.63431,-8.2699 9.28701,-9.37938 2.80919,-0.85327 5.79962,-0.12458 8.18027,1.99329 l 1.02785,0.91441 1.3661,-2.43949 c 0.75136,-1.34171 2.09876,-3.41084 2.99422,-4.5981 1.89661,-2.51464 5.39373,-5.98138 7.41842,-7.35403 1.67281,-1.13406 4.59436,-2.51872 6.05698,-2.87068 1.45944,-0.35115 4.32763,-0.31169 5.63857,0.0776 2.50679,0.74446 4.72055,2.96765 5.79904,5.82376 0.33343,0.88301 0.68306,1.60654 0.77696,1.60785 0.0939,0 0.56105,-0.24398 1.03809,-0.54514 2.81926,-1.77972 6.90211,-3.48064 10.43424,-4.34692 3.00656,-0.73737 7.83526,-0.76012 10.09986,-0.0476 5.38201,1.69334 7.95,6.31853 6.56001,11.81521 -0.97177,3.84281 -2.8857,6.90717 -6.65605,10.65686 -1.41594,1.40822 -3.41439,3.14828 -4.44099,3.8669 l -1.86655,1.30655 0.75768,0.55643 c 1.75917,1.29195 3.89934,3.69824 4.654,5.23266 0.72113,1.46629 0.76092,1.66975 0.76092,3.89134 0,2.27516 -0.0253,2.39538 -0.85962,4.08466 -2.25748,4.57086 -8.12049,8.00074 -15.9951,9.35715 -1.09778,0.18909 -2.01915,0.36616 -2.0475,0.39344 -0.0283,0.0273 0.28428,0.69177 0.69474,1.47661 0.99019,1.89323 1.32994,3.44867 1.17836,5.39473 -0.53841,6.91221 -8.44289,12.48505 -19.86578,14.00573 -1.29737,0.17272 -2.941,0.31599 -3.65252,0.31836 -0.71152,0.003 -1.25563,0.0792 -1.20912,0.17065 1.39566,2.74533 1.39393,2.73878 1.39393,5.26712 0,2.34445 -0.0302,2.49997 -0.77621,3.9919 -2.7335,5.46698 -11.03529,9.5534 -21.84459,10.75267 -2.5997,0.28842 -9.03563,0.28705 -11.42711,-0.003 -4.73157,-0.57271 -9.381126,-1.83681 -13.008686,-3.53677 -1.0481,-0.49117 -1.98829,-0.89302 -2.08928,-0.89302 -0.40666,0 -6.84841,9.458148 -10.4976,15.413178 -1.19591,1.95161 -2.41726,3.77292 -2.71409,4.04736 -0.70047,0.64766 -2.01307,0.66908 -2.80542,0.0458 z M 120.99863,91.971842 c 6.13446,-0.80416 11.10839,-2.54892 14.41527,-5.05661 2.23715,-1.69649 3.26688,-3.35865 3.26688,-5.27331 0,-1.84283 -1.36557,-3.81755 -3.84042,-5.55354 -1.79503,-1.25914 -2.14974,-2.65548 -0.96436,-3.79616 0.50732,-0.48821 0.61793,-0.49719 6.23884,-0.50488 5.06878,-0.007 5.99593,-0.0651 8.11747,-0.5091 4.36639,-0.91388 7.70075,-2.31827 10.35691,-4.36212 2.38973,-1.83884 3.44817,-3.78703 3.26916,-6.0172 -0.17134,-2.13461 -0.86246,-3.12916 -4.26218,-6.1336 -0.75789,-0.66978 -0.88205,-0.90743 -0.88205,-1.68828 0,-0.692 0.14308,-1.0518 0.59996,-1.5087 0.57989,-0.57989 0.71009,-0.60544 3.89052,-0.76366 6.23122,-0.31 11.23805,-1.79372 14.61468,-4.33085 2.16405,-1.62604 3.1729,-3.27073 3.1729,-5.17264 0,-2.48616 -2.04755,-4.80313 -5.91315,-6.6912 -2.49404,-1.21816 -2.95775,-1.65681 -2.95775,-2.7978 0,-1.15958 0.28257,-1.4613 2.59905,-2.77507 5.57042,-3.15923 9.55766,-6.8913 11.79332,-11.03855 0.97375,-1.80637 1.57525,-3.79118 1.57525,-5.19793 0,-1.33775 -0.90129,-2.97896 -2.04215,-3.71873 -1.46535,-0.95013 -2.46795,-1.15854 -5.49812,-1.14294 -2.26905,0.0117 -3.15709,0.11942 -4.89321,0.59366 -3.83621,1.04781 -7.25327,2.72498 -10.93766,5.36841 -2.00073,1.43546 -2.6709,1.64484 -3.64782,1.13966 -0.93014,-0.48099 -1.05999,-0.79003 -1.35554,-3.22603 -0.58404,-4.81384 -2.69723,-6.87193 -6.36055,-6.1947 -5.88295,1.08749 -12.94938,8.62927 -16.49734,17.60703 -0.84678,2.14269 -0.93742,2.26032 -1.98333,2.57368 -1.26283,0.37834 -2.02322,-0.12428 -2.99995,-1.98298 -0.92132,-1.75331 -2.29615,-3.27775 -3.35506,-3.72019 -3.46281,-1.44683 -7.99466,2.98848 -10.48551,10.26216 -1.84593,5.39041 -2.44339,11.96784 -1.55205,17.08635 0.38764,2.22593 -0.32538,3.39166 -2.07453,3.39166 -0.74132,0 -1.05265,-0.19633 -2.58748,-1.63169 -2.38288,-2.22845 -3.38071,-2.69287 -5.78555,-2.69287 -1.53207,0 -2.08383,0.0979 -2.94651,0.52264 -3.903756,1.9222 -7.332956,7.85028 -8.822856,15.25207 -0.68717,3.41388 -0.85714,10.87529 -0.33024,14.49724 0.52071,3.57928 1.54142,7.63319 1.88747,7.4963 0.0931,-0.0368 1.19914,-1.3643 2.45795,-2.94998 1.25881,-1.58565 2.80522,-3.49515 3.43646,-4.2433 l 1.147706,-1.36027 0.13302,-4.96024 c 0.13381,-4.98916 0.47453,-8.2726 1.26267,-12.16787 0.36213,-1.78977 0.52825,-2.19864 1.1038,-2.71672 0.75603,-0.68052 1.49518,-0.76824 2.42449,-0.28765 1.13785,0.58841 1.26087,1.34777 0.71398,4.40706 -0.62785,3.51218 -0.85291,5.28908 -1.03021,8.13354 l -0.14514,2.32861 1.83395,-1.99595 c 2.62673,-2.85877 12.73152,-13.00383 14.91021,-14.96964 l 1.8434,-1.6633 0.1479,-4.32457 c 0.16966,-4.96067 0.41303,-7.36403 1.15656,-11.42131 0.48002,-2.61928 0.59048,-2.9388 1.20754,-3.49291 0.94232,-0.84612 2.03691,-0.83168 2.90698,0.0384 0.75986,0.75986 0.81469,1.41463 0.31671,3.78197 -0.425,2.02033 -0.93342,6.12591 -1.12473,9.08231 l -0.14968,2.31301 0.85842,-0.69489 c 0.47214,-0.38219 2.2057,-1.80417 3.85236,-3.15999 1.64666,-1.35578 4.5014,-3.61001 6.34387,-5.00941 l 3.34995,-2.54434 0.12972,-4.81427 c 0.14887,-5.52463 0.90659,-11.40837 1.75662,-13.64021 0.25181,-0.66116 1.18146,-1.26474 1.94796,-1.26474 0.77555,0 1.69563,0.60561 1.98632,1.30739 0.23193,0.55992 0.187,1.14035 -0.28914,3.73499 -0.63426,3.45622 -1.10066,8.18793 -0.99275,10.07168 l 0.0718,1.25329 3.77013,-2.53855 c 7.99449,-5.38292 16.21336,-10.28042 17.25236,-10.28042 0.88977,0 2.15275,1.27052 2.15275,2.16564 0,0.36166 -0.2006,0.91258 -0.44578,1.22428 -0.24517,0.31167 -2.62412,1.86861 -5.28656,3.45985 -2.66245,1.59124 -6.97736,4.30733 -9.58871,6.0358 -4.18781,2.77191 -4.68818,3.16475 -4.24158,3.32995 1.05377,0.38981 6.71837,1.08975 9.91552,1.22521 4.31037,0.1826 4.98988,0.51083 4.98988,2.41038 0,0.59719 -0.16905,0.97688 -0.64826,1.45608 -0.61319,0.61319 -0.74816,0.64815 -2.49494,0.64599 -4.17812,-0.005 -10.55044,-0.81717 -14.88619,-1.89692 l -2.17266,-0.54103 -2.52661,1.88826 c -5.99326,4.47912 -12.20296,9.67482 -11.81857,9.88869 0.9078,0.50504 9.36415,1.52794 12.64369,1.5294 1.57851,0 1.77257,0.052 2.43446,0.64336 0.97201,0.86851 1.01705,2.16564 0.10666,3.07207 -0.61239,0.60973 -0.61334,0.60987 -3.6542,0.57693 -4.44147,-0.0482 -9.86509,-0.76126 -14.17728,-1.86415 l -1.68581,-0.43116 -0.79689,0.60737 c -1.29322,0.9856 -13.27453,13.00509 -16.07819,16.12939 -2.98481,3.32619 -3.07363,2.98046 0.94048,3.66018 3.35798,0.56865 6.68568,0.89286 9.16367,0.89286 2.88813,0 3.73562,0.54566 3.73562,2.40522 0,0.71259 -0.13103,0.99223 -0.68233,1.45608 -0.62574,0.52654 -0.85107,0.57411 -2.71672,0.57341 -3.9615,0 -9.15614,-0.63312 -13.86341,-1.68575 -2.18855,-0.48937 -2.54797,-0.52022 -2.77215,-0.23765 -0.14167,0.17854 -1.61,2.00683 -3.26296,4.06286 -1.652966,2.05606 -3.287036,4.11319 -3.631286,4.57143 l -0.62589,0.83314 1.85924,0.87127 c 2.713306,1.27149 7.390286,2.49148 11.391176,2.97137 1.94121,0.23283 8.98435,0.11387 11.31035,-0.19104 z"
       id="path1"
       inkscape:export-filename="path1.svg"
       inkscape:export-xdpi="96"
       inkscape:export-ydpi="96" />
  </g>
</svg>
