<?xml version="1.0" encoding="UTF-8" standalone="no"?>
<!-- Created with Inkscape (http://www.inkscape.org/) -->

<svg
   version="1.1"
   id="svg1"
   width="800"
   height="400"
   viewBox="0 0 800 400"
   sodipodi:docname="breeze-components.svg"
   inkscape:version="1.3-dev (77bc73e, 2022-05-18)"
   xmlns:inkscape="http://www.inkscape.org/namespaces/inkscape"
   xmlns:sodipodi="http://sodipodi.sourceforge.net/DTD/sodipodi-0.dtd"
   xmlns:xlink="http://www.w3.org/1999/xlink"
   xmlns="http://www.w3.org/2000/svg"
   xmlns:svg="http://www.w3.org/2000/svg">
  <defs
     id="defs1">
    <linearGradient
       inkscape:collect="always"
       id="linearGradient2">
      <stop
         style="stop-color:#e65c1c;stop-opacity:1;"
         offset="0"
         id="stop1" />
      <stop
         style="stop-color:#f47c0a;stop-opacity:0;"
         offset="1"
         id="stop2" />
    </linearGradient>
    <linearGradient
       inkscape:collect="always"
       xlink:href="#linearGradient2"
       id="linearGradient3"
       x1="-2.2806323"
       y1="-204.93451"
       x2="957.82233"
       y2="-625.42041"
       gradientUnits="userSpaceOnUse"
       gradientTransform="matrix(0.54145581,0,0,0.54145581,270.65842,-271.14573)" />
  </defs>
  <sodipodi:namedview
     id="namedview1"
     pagecolor="#ffffff"
     bordercolor="#000000"
     borderopacity="0.25"
     inkscape:showpageshadow="2"
     inkscape:pageopacity="0.0"
     inkscape:pagecheckerboard="0"
     inkscape:deskcolor="#d1d1d1"
     showgrid="false"
     inkscape:zoom="0.47326204"
     inkscape:cx="362.37852"
     inkscape:cy="230.31638"
     inkscape:window-width="1440"
     inkscape:window-height="872"
     inkscape:window-x="0"
     inkscape:window-y="28"
     inkscape:window-maximized="0"
     inkscape:current-layer="g1" />
  <g
     inkscape:groupmode="layer"
     id="layer1"
     inkscape:label="BG"
     transform="translate(84.519775,642.35028)">
    <rect
       style="fill:#ffffff;fill-opacity:1;stroke:none;stroke-width:0.760315"
       id="rect1"
       width="800"
       height="400"
       x="-84.519775"
       y="-642.35028" />
  </g>
  <g
     inkscape:groupmode="layer"
     inkscape:label="Image"
     id="g1"
     transform="translate(84.519775,642.35028)">
    <g
       id="g5"
       transform="translate(-39.395815,-34.138636)">
      <path
         style="fill:url(#linearGradient3);fill-opacity:1;stroke-width:0.360971"
         d="m 263.77337,-374.98629 c -1.36182,-1.07122 -1.59431,-2.85721 -0.61619,-4.73374 2.17387,-4.17067 12.97385,-20.72492 18.56719,-28.45989 1.50743,-2.0846 2.74122,-3.98289 2.74174,-4.21843 3.7e-4,-0.23553 -0.48852,-1.69746 -1.08679,-3.24873 -5.44588,-14.12095 -5.8102,-34.57672 -0.87956,-49.3857 2.26419,-6.80036 5.94747,-13.09207 9.97288,-17.03534 6.6045,-6.46974 14.22149,-7.9405 22.32959,-4.31145 0.47684,0.21345 0.6134,-0.52862 0.96896,-5.26554 0.71585,-9.53699 2.661,-17.32047 6.01033,-24.05039 4.20129,-8.44173 9.17075,-13.46059 15.11611,-15.26645 4.5724,-1.38884 9.43982,-0.20278 13.31471,3.2444 l 1.67298,1.48835 2.22355,-3.97066 c 1.22296,-2.18385 3.41607,-5.5517 4.87358,-7.48416 3.08703,-4.09297 8.77916,-9.73565 12.07467,-11.96986 2.72277,-1.84587 7.47807,-4.09963 9.85871,-4.67249 2.37547,-0.57156 7.04391,-0.50734 9.17769,0.12632 4.0802,1.21173 7.68345,4.83033 9.43887,9.47911 0.5427,1.43724 1.11178,2.6149 1.26463,2.61702 0.15285,0 0.91319,-0.39711 1.68965,-0.88729 4.5888,-2.89679 11.23429,-5.6653 16.9834,-7.07531 4.89366,-1.20019 12.75315,-1.23723 16.43915,-0.0775 8.7601,2.75618 12.93991,10.28442 10.67748,19.23116 -1.58172,6.25479 -4.69694,11.24252 -10.8338,17.34576 -2.30467,2.29209 -5.55747,5.12433 -7.22843,6.29399 l -3.03811,2.12662 1.23326,0.90569 c 2.86332,2.10285 6.34679,6.01947 7.57513,8.51699 1.17376,2.38663 1.23851,2.71779 1.23851,6.33379 0,3.70318 -0.0412,3.89886 -1.39916,6.64843 -3.67442,7.43982 -13.21741,13.0225 -26.0346,15.23028 -1.78681,0.30777 -3.28649,0.59598 -3.33264,0.64038 -0.0461,0.0444 0.46272,1.12596 1.13081,2.40342 1.61169,3.08153 2.16468,5.61327 1.91796,8.78079 -0.87634,11.25074 -13.74216,20.32143 -32.33475,22.79659 -2.11168,0.28112 -4.78695,0.51432 -5.94507,0.51817 -1.15811,0.005 -2.04373,0.12887 -1.96803,0.27777 2.27166,4.46847 2.26884,4.4578 2.26884,8.57308 0,3.81597 -0.0492,4.0691 -1.2634,6.49747 -4.44921,8.89839 -17.96171,15.54969 -35.5556,17.50169 -4.23142,0.46945 -14.70693,0.46723 -18.59945,-0.005 -7.70139,-0.93217 -15.2693,-2.9897 -21.17374,-5.75665 -1.70596,-0.79946 -3.23626,-1.45354 -3.40065,-1.45354 -0.6619,0 -11.14689,15.39467 -17.08652,25.08744 -1.94655,3.17656 -3.93449,6.14103 -4.41762,6.58773 -1.14014,1.05416 -3.2766,1.08903 -4.56627,0.0746 z m 70.32707,-31.93778 c 9.98482,-1.30891 18.08069,-4.14879 23.46318,-8.23045 3.64132,-2.76131 5.31737,-5.46675 5.31737,-8.58316 0,-2.9995 -2.22268,-6.21369 -6.2509,-9.03928 -2.9217,-2.04946 -3.49905,-4.32222 -1.56966,-6.17887 0.82576,-0.79464 1.00579,-0.80926 10.15473,-0.82177 8.25025,-0.0114 9.75934,-0.10591 13.21248,-0.82864 7.10701,-1.48749 12.53421,-3.77336 16.85755,-7.10006 3.88966,-2.99301 5.61245,-6.16399 5.32107,-9.79396 -0.27888,-3.47442 -1.40378,-5.09321 -6.93738,-9.98342 -1.23359,-1.09017 -1.43568,-1.47698 -1.43568,-2.74794 0,-1.12634 0.23289,-1.71198 0.97654,-2.45566 0.94386,-0.94387 1.15578,-0.98545 6.33244,-1.24297 10.14232,-0.50458 18.29174,-2.91958 23.78775,-7.04916 3.52234,-2.64664 5.1644,-5.32365 5.1644,-8.41931 0,-4.04663 -3.33271,-7.81787 -9.6246,-10.89101 -4.05945,-1.98275 -4.81422,-2.69672 -4.81422,-4.55386 0,-1.8874 0.45993,-2.3785 4.23038,-4.51688 9.06675,-5.14215 15.55663,-11.21669 19.19552,-17.96702 1.58494,-2.94016 2.56398,-6.17075 2.56398,-8.46046 0,-2.17741 -1.46699,-4.84874 -3.32393,-6.05283 -2.38509,-1.5465 -4.01699,-1.88572 -8.94907,-1.86033 -3.69325,0.019 -5.13868,0.19438 -7.9645,0.96628 -6.24404,1.70548 -11.80586,4.43534 -17.80279,8.73796 -3.25651,2.33644 -4.34733,2.67723 -5.93742,1.85498 -1.51396,-0.7829 -1.72531,-1.28591 -2.20636,-5.25088 -0.95062,-7.8353 -4.39018,-11.18518 -10.35282,-10.08288 -9.57544,1.77007 -21.0772,14.04552 -26.85207,28.65828 -1.37828,3.48757 -1.52581,3.67903 -3.22819,4.18908 -2.05547,0.6158 -3.29312,-0.20229 -4.8829,-3.22762 -1.49961,-2.85379 -3.73736,-5.33507 -5.46091,-6.05521 -5.63628,-2.35495 -13.01259,4.86423 -17.06686,16.70332 -3.00454,8.77375 -3.97701,19.47958 -2.5262,27.81079 0.63094,3.62305 -0.52961,5.52047 -3.37663,5.52047 -1.20663,0 -1.71336,-0.31957 -4.21154,-2.65584 -3.87852,-3.62716 -5.50265,-4.38308 -9.41692,-4.38308 -2.49369,0 -3.39177,0.15929 -4.79592,0.85068 -6.35399,3.12869 -11.93558,12.7776 -14.36062,24.8252 -1.11849,5.55664 -1.39514,17.70128 -0.53752,23.59659 0.84753,5.82585 2.50891,12.42425 3.07216,12.20144 0.15148,-0.0599 1.95179,-2.22062 4.00071,-4.80158 2.04892,-2.5809 4.56595,-5.68891 5.59339,-6.90664 l 1.86808,-2.21407 0.21652,-8.07359 c 0.21779,-8.12065 0.77237,-13.46498 2.05519,-19.80516 0.58942,-2.91314 0.85981,-3.57864 1.79662,-4.4219 1.23055,-1.10766 2.43364,-1.25044 3.94624,-0.4682 1.85203,0.95773 2.05227,2.19371 1.16212,7.1732 -1.02192,5.71664 -1.38825,8.60883 -1.67683,13.23865 l -0.23625,3.79019 2.98505,-3.24873 c 4.27543,-4.65311 20.7226,-21.16583 24.26877,-24.36551 l 3.00044,-2.70728 0.24073,-7.03893 c 0.27614,-8.07429 0.67227,-11.98615 1.88249,-18.59002 0.7813,-4.26331 0.9611,-4.78338 1.96546,-5.68528 1.53377,-1.37719 3.3154,-1.3537 4.73158,0.0625 1.23679,1.2368 1.32604,2.30254 0.51549,6.15576 -0.69175,3.28842 -1.51928,9.97091 -1.83067,14.78293 l -0.24363,3.7648 1.39722,-1.13105 c 0.76847,-0.62208 3.59012,-2.93658 6.27033,-5.14339 2.6802,-2.20676 7.32676,-5.87588 10.32567,-8.15362 l 5.45259,-4.14133 0.21114,-7.836 c 0.2423,-8.99223 1.47561,-18.56896 2.85917,-22.20164 0.40986,-1.07614 1.92302,-2.05856 3.17063,-2.05856 1.26232,0 2.75991,0.98572 3.23305,2.12798 0.37751,0.91137 0.30437,1.85611 -0.47063,6.0793 -1.03236,5.62556 -1.79149,13.32718 -1.61586,16.39328 l 0.11684,2.03993 6.1365,-4.1319 c 13.01231,-8.76157 26.38984,-16.73304 28.08098,-16.73304 1.44825,0 3.50395,2.06798 3.50395,3.52493 0,0.58867 -0.32651,1.48537 -0.72557,1.99272 -0.39906,0.50729 -4.27119,3.04146 -8.60474,5.63146 -4.33355,2.59 -11.35677,7.01088 -15.60716,9.82423 -6.81634,4.51174 -7.63077,5.15114 -6.90386,5.42003 1.71518,0.63448 10.93524,1.77375 16.13911,1.99423 7.01582,0.29721 8.12183,0.83146 8.12183,3.92329 0,0.97202 -0.27515,1.59003 -1.05514,2.37 -0.99807,0.99807 -1.21775,1.05497 -4.06092,1.05145 -6.80056,-0.008 -17.17254,-1.33008 -24.22968,-3.08754 l -3.53635,-0.88062 -4.11246,3.07346 c -9.755,7.29049 -19.86229,15.74732 -19.23662,16.09543 1.47759,0.82203 15.24166,2.48696 20.57963,2.48934 2.56929,0 2.88514,0.0846 3.96248,1.04718 1.58211,1.41363 1.65542,3.52493 0.17361,5.00029 -0.99676,0.99243 -0.99832,0.99265 -5.9478,0.93904 -7.22921,-0.0784 -16.05702,-1.23907 -23.07581,-3.03421 l -2.74392,-0.70178 -1.29707,0.98859 c -2.10493,1.60423 -21.60644,21.16789 -26.16985,26.25319 -4.85825,5.41391 -5.00283,4.85117 1.53078,5.95753 5.46566,0.92556 10.88203,1.45327 14.91535,1.45327 4.70091,0 6.08033,0.88815 6.08033,3.91489 0,1.15985 -0.21328,1.615 -1.11061,2.37 -1.01849,0.85702 -1.38524,0.93445 -4.42189,0.93331 -6.44798,0 -14.9031,-1.0305 -22.56493,-2.74383 -3.56223,-0.79653 -4.14723,-0.84673 -4.51213,-0.38681 -0.23058,0.2906 -2.62053,3.26644 -5.31099,6.61296 -2.69047,3.34657 -5.35019,6.69488 -5.9105,7.44074 l -1.01874,1.35607 3.02621,1.41813 c 4.41634,2.06955 12.02889,4.05529 18.54098,4.83639 3.15963,0.37897 14.62347,0.18534 18.40941,-0.31096 z"
         id="path1" />
      <text
         xml:space="preserve"
         style="font-style:normal;font-variant:normal;font-weight:500;font-stretch:normal;font-size:74.6667px;font-family:Futura;-inkscape-font-specification:'Futura, Medium';font-variant-ligatures:normal;font-variant-caps:normal;font-variant-numeric:normal;font-variant-east-asian:normal;fill:#e65c1c;fill-opacity:1"
         x="12.677952"
         y="-281.02823"
         id="text1"><tspan
           sodipodi:role="line"
           id="tspan1"
           x="12.677952"
           y="-281.02823">Breeze Components</tspan></text>
    </g>
  </g>
</svg>
